<?xml version="1.0" encoding="UTF-8" standalone="no"?>
<!-- Created with Inkscape (http://www.inkscape.org/) -->

<svg
   width="210mm"
   height="297mm"
   viewBox="0 0 210 297"
   version="1.1"
   id="svg1"
   inkscape:version="1.4.3 (0d15f75042, 2025-12-25)"
   sodipodi:docname="logo-text-transparent-dark.svg"
   xmlns:inkscape="http://www.inkscape.org/namespaces/inkscape"
   xmlns:sodipodi="http://sodipodi.sourceforge.net/DTD/sodipodi-0.dtd"
   xmlns="http://www.w3.org/2000/svg"
   xmlns:svg="http://www.w3.org/2000/svg">
  <sodipodi:namedview
     id="namedview1"
     pagecolor="#ffffff"
     bordercolor="#666666"
     borderopacity="1.0"
     inkscape:showpageshadow="2"
     inkscape:pageopacity="0.0"
     inkscape:pagecheckerboard="0"
     inkscape:deskcolor="#d1d1d1"
     inkscape:document-units="mm"
     inkscape:zoom="1.4142136"
     inkscape:cx="468.10468"
     inkscape:cy="597.15166"
     inkscape:window-width="1673"
     inkscape:window-height="1190"
     inkscape:window-x="26"
     inkscape:window-y="23"
     inkscape:window-maximized="0"
     inkscape:current-layer="layer1" />
  <defs
     id="defs1">
    <rect
       x="126.57211"
       y="429.92092"
       width="535.98694"
       height="229.1026"
       id="rect14" />
  </defs>
  <g
     inkscape:label="Layer 1"
     inkscape:groupmode="layer"
     id="layer1">
    <g
       id="g1"
       inkscape:export-filename="/home/pumukli/Documents/SuperNOVAS/supernovas-logo-test-transparent-dark.png"
       inkscape:export-xdpi="96"
       inkscape:export-ydpi="96">
      <text
         xml:space="preserve"
         style="font-style:normal;font-variant:normal;font-weight:bold;font-stretch:normal;font-size:33.8666px;line-height:1.25;font-family:Aharoni;-inkscape-font-specification:'Aharoni, Bold';font-variant-ligatures:none;font-variant-caps:normal;font-variant-numeric:normal;font-variant-east-asian:normal;letter-spacing:0px;word-spacing:0px;fill:#000000;fill-opacity:0.75421464;stroke-width:0.529166"
         x="43.467953"
         y="166.67935"
         id="text13"><tspan
           sodipodi:role="line"
           id="tspan13"
           style="font-style:normal;font-variant:normal;font-weight:bold;font-stretch:normal;font-size:33.8666px;font-family:Aharoni;-inkscape-font-specification:'Aharoni, Bold';font-variant-ligatures:none;font-variant-caps:normal;font-variant-numeric:normal;font-variant-east-asian:normal;fill:#000000;fill-opacity:0.75421464;stroke-width:0.529166"
           x="43.467953"
           y="166.67935">NOVAS</tspan></text>
      <g
         id="g13"
         transform="matrix(0.18,0,0,0.18,66.12466,128.46565)">
        <circle
           style="fill:#818181;fill-opacity:1;stroke:#000000;stroke-width:0;stroke-dasharray:none"
           id="path11-6"
           cx="105"
           cy="148.5"
           inkscape:label="outer circle"
           r="85" />
        <circle
           style="fill:#ffffff;fill-opacity:1;stroke:#000000;stroke-width:0;stroke-dasharray:none"
           id="path11"
           cx="105"
           cy="148.5"
           inkscape:label="inner circle"
           r="75" />
        <path
           id="path9-5-6-9-7"
           style="fill:#de0000;fill-opacity:1;stroke:#808080;stroke-width:1;stroke-dasharray:none;stroke-opacity:1"
           inkscape:transform-center-x="61.237749"
           inkscape:transform-center-y="-47.743999"
           d="m 113.80794,186.42392 c 4.12665,-8.49129 7.18885,-10.15218 15.84991,-6.32022 11.9602,5.29162 17.35745,10.27061 17.35745,10.27061 0,0 -4.86897,-5.29027 -10.16059,-17.25047 -3.83196,-8.66106 -2.17107,-11.72326 6.32022,-15.84992 10.95841,-5.32565 33.83159,-8.80916 33.83159,-8.80916 0,0 -22.87319,-3.48351 -33.83159,-8.80916 -8.49129,-4.12665 -10.15218,-7.18885 -6.32022,-15.84991 5.29162,-11.9602 10.16059,-17.20604 10.16059,-17.20604 0,0 -5.3948,4.94004 -17.355,10.23166 -8.66106,3.83196 -11.72326,2.17107 -15.84992,-6.32022 -5.32565,-10.958407 -8.86104,-33.765438 -8.86104,-33.765438 0,0 -4.09308,22.939327 -9.41873,33.897728 -4.12665,8.49129 -6.527392,10.01989 -15.188452,6.18793 -11.960203,-5.29162 -17.356232,-10.23166 -17.356232,-10.23166 0,0 4.86775,5.25132 10.15937,17.21152 3.83196,8.66106 2.17107,11.72326 -6.32022,15.84992 -10.95841,5.32565 -33.831582,8.80367 -33.831582,8.80367 0,0 22.873182,3.489 33.831582,8.81465 8.49129,4.12665 10.15218,7.18885 6.32022,15.84991 -5.29162,11.9602 -10.15937,17.24499 -10.15937,17.24499 0,0 5.393584,-4.97899 17.353784,-10.27061 8.66106,-3.83196 11.72326,-2.17107 15.84992,6.32022 5.32565,10.95841 8.75971,33.83158 8.75971,33.83158 0,0 3.53295,-22.87318 8.8586,-33.83158 z"
           sodipodi:nodetypes="sscsscsscsscsscsscsscsscs"
           inkscape:label="large star" />
        <path
           id="path9-5-6-9-7-3"
           style="fill:#de6e6e;fill-opacity:1;stroke:#000000;stroke-width:0;stroke-dasharray:none"
           inkscape:transform-center-x="45.928312"
           inkscape:transform-center-y="-35.807997"
           d="m 111.60595,176.94294 c 3.09499,-6.36847 5.39164,-7.61413 11.88744,-4.74016 8.97015,3.96871 13.01808,7.70295 13.01808,7.70295 0,0 -3.65172,-3.9677 -7.62044,-12.93785 -2.87397,-6.49579 -1.6283,-8.79244 4.74017,-11.88744 8.2188,-3.99424 25.37369,-6.60687 25.37369,-6.60687 0,0 -17.15489,-2.61263 -25.37369,-6.60687 -6.36847,-3.09499 -7.61414,-5.39164 -4.74017,-11.88743 3.96872,-8.97015 7.62044,-12.90453 7.62044,-12.90453 0,0 -4.0461,3.70503 -13.01625,7.67374 -6.49579,2.87397 -8.79244,1.62831 -11.88744,-4.74016 -3.99423,-8.2188 -6.64578,-25.324081 -6.64578,-25.324081 0,0 -3.06981,17.204501 -7.064039,25.423301 -3.09499,6.36846 -4.89555,7.51491 -11.39134,4.64094 -8.970156,-3.96871 -13.017178,-7.67374 -13.017178,-7.67374 0,0 3.650813,3.93849 7.619528,12.90864 2.87397,6.49579 1.6283,8.79244 -4.740165,11.88744 -8.218808,3.99424 -25.373687,6.60275 -25.373687,6.60275 0,0 17.154887,2.61675 25.373687,6.61099 6.368465,3.09499 7.614135,5.39164 4.740165,11.88743 -3.968715,8.97015 -7.619528,12.93374 -7.619528,12.93374 0,0 4.045188,-3.73424 13.015338,-7.70295 6.4958,-2.87397 8.79245,-1.62831 11.88744,4.74016 3.994239,8.21881 6.569779,25.37369 6.569779,25.37369 0,0 2.64972,-17.15489 6.64395,-25.37369 z"
           sodipodi:nodetypes="sscsscsscsscsscsscsscsscs"
           inkscape:label="medium star" />
        <path
           id="path9-5-6-9-7-2"
           style="fill:#c0c0c0;fill-opacity:1;stroke:#000000;stroke-width:0;stroke-dasharray:none"
           inkscape:transform-center-x="30.618877"
           inkscape:transform-center-y="-23.871997"
           d="m 109.40397,167.46196 c 2.06332,-4.24564 3.59442,-5.07609 7.92495,-3.16011 5.9801,2.64581 8.67873,5.13531 8.67873,5.13531 0,0 -2.43449,-2.64514 -5.0803,-8.62524 -1.91598,-4.33053 -1.08553,-5.86163 3.16011,-7.92496 5.47921,-2.66282 16.9158,-4.40458 16.9158,-4.40458 0,0 -11.4366,-1.74175 -16.9158,-4.40458 -4.24564,-2.06332 -5.07609,-3.59442 -3.16011,-7.92495 2.64581,-5.9801 5.0803,-8.60302 5.0803,-8.60302 0,0 -2.6974,2.47002 -8.6775,5.11583 -4.33053,1.91598 -5.86163,1.08553 -7.92496,-3.16011 -2.66283,-5.47921 -4.43052,-16.88272 -4.43052,-16.88272 0,0 -2.04654,11.46966 -4.70937,16.94886 -2.063317,4.24565 -3.263687,5.00995 -7.594217,3.09397 -5.98011,-2.64581 -8.67812,-5.11583 -8.67812,-5.11583 0,0 2.43387,2.62566 5.07968,8.60576 1.91598,4.33053 1.08554,5.86163 -3.16011,7.92496 -5.4792,2.66282 -16.91579,4.40183 -16.91579,4.40183 0,0 11.43659,1.7445 16.91579,4.40733 4.24565,2.06332 5.07609,3.59442 3.16011,7.92495 -2.64581,5.9801 -5.07968,8.6225 -5.07968,8.6225 0,0 2.69679,-2.4895 8.67689,-5.13531 4.33053,-1.91598 5.86163,-1.08553 7.924957,3.16011 2.66283,5.47921 4.37986,16.91579 4.37986,16.91579 0,0 1.76647,-11.43659 4.4293,-16.91579 z"
           sodipodi:nodetypes="sscsscsscsscsscsscsscsscs"
           inkscape:label="small star" />
        <path
           id="path9-5-6-9-7-5"
           style="fill:#ffffff;fill-opacity:1;stroke:#000000;stroke-width:0;stroke-dasharray:none"
           inkscape:transform-center-x="15.309438"
           inkscape:transform-center-y="-11.936001"
           d="m 107.20195,157.9771 c 1.03166,-2.12282 1.79721,-2.53805 3.96247,-1.58006 2.99005,1.32291 4.33937,2.56766 4.33937,2.56766 0,0 -1.21725,-1.32257 -2.54015,-4.31262 -0.95799,-2.16527 -0.54277,-2.93082 1.58005,-3.96248 2.73961,-1.33141 8.4579,-2.20229 8.4579,-2.20229 0,0 -5.7183,-0.87088 -8.4579,-2.20229 -2.12282,-1.03166 -2.53804,-1.79722 -1.58005,-3.96248 1.3229,-2.99005 2.54015,-4.30151 2.54015,-4.30151 0,0 -1.3487,1.23501 -4.33875,2.55791 -2.16527,0.95799 -2.93082,0.54277 -3.96248,-1.58005 -1.33142,-2.7396 -2.21526,-8.44136 -2.21526,-8.44136 0,0 -1.02327,5.73483 -2.35469,8.47443 -1.03166,2.12282 -1.63184,2.50497 -3.797109,1.54698 -2.99005,-1.3229 -4.33906,-2.55791 -4.33906,-2.55791 0,0 1.21694,1.31283 2.53985,4.30288 0.95799,2.16526 0.54276,2.93082 -1.58006,3.96248 -2.7396,1.33141 -8.457895,2.20092 -8.457895,2.20092 0,0 5.718295,0.87225 8.457895,2.20366 2.12282,1.03166 2.53805,1.79721 1.58006,3.96248 -1.32291,2.99005 -2.53985,4.31125 -2.53985,4.31125 0,0 1.3484,-1.24475 4.33845,-2.56766 2.165259,-0.95799 2.930809,-0.54276 3.962479,1.58006 1.33141,2.7396 2.18993,8.45789 2.18993,8.45789 0,0 0.88323,-5.71829 2.21465,-8.45789 z"
           sodipodi:nodetypes="sscsscsscsscsscsscsscsscs"
           inkscape:label="smallest star" />
        <rect
           style="fill:#ffffff;fill-opacity:1;stroke:#b2b2b2;stroke-width:0;stroke-dasharray:none;stroke-opacity:1"
           id="rect12"
           width="4"
           height="12"
           x="102.99996"
           y="62.300526" />
        <rect
           style="fill:#ffffff;fill-opacity:1;stroke:#b2b2b2;stroke-width:0;stroke-dasharray:none;stroke-opacity:1"
           id="rect12-8"
           width="4"
           height="12"
           x="-150.49626"
           y="178.96312"
           transform="rotate(-90)" />
        <rect
           style="fill:#ffffff;fill-opacity:1;stroke:#b2b2b2;stroke-width:0;stroke-dasharray:none;stroke-opacity:1"
           id="rect12-8-2"
           width="4"
           height="12"
           x="-150.49626"
           y="18.710436"
           transform="rotate(-90)" />
        <rect
           style="fill:#ffffff;fill-opacity:1;stroke:#b2b2b2;stroke-width:0;stroke-dasharray:none;stroke-opacity:1"
           id="rect12-0"
           width="4"
           height="12"
           x="102.99996"
           y="222.52538"
           inkscape:export-filename="SuperNOVAS-1200x1200.png"
           inkscape:export-xdpi="176.94936"
           inkscape:export-ydpi="176.94936" />
      </g>
      <text
         xml:space="preserve"
         style="font-style:normal;font-variant:normal;font-weight:bold;font-stretch:normal;font-size:16.9333px;line-height:1.25;font-family:Aharoni;-inkscape-font-specification:'Aharoni, Bold';font-variant-ligatures:none;font-variant-caps:normal;font-variant-numeric:normal;font-variant-east-asian:normal;letter-spacing:0px;word-spacing:0px;fill:#000000;fill-opacity:0.745395;stroke-width:0.264582"
         x="45.154667"
         y="137.69165"
         id="text13-0"><tspan
           sodipodi:role="line"
           id="tspan13-6"
           style="font-style:normal;font-variant:normal;font-weight:bold;font-stretch:normal;font-size:16.9333px;font-family:Aharoni;-inkscape-font-specification:'Aharoni, Bold';font-variant-ligatures:none;font-variant-caps:normal;font-variant-numeric:normal;font-variant-east-asian:normal;fill:#000000;fill-opacity:0.500802;stroke-width:0.264582"
           x="45.154667"
           y="137.69165">Super</tspan></text>
      <text
         xml:space="preserve"
         style="font-style:normal;font-variant:normal;font-weight:bold;font-stretch:normal;font-size:7.05556px;line-height:1.25;font-family:'Adwaita Sans';-inkscape-font-specification:'Adwaita Sans, Bold';font-variant-ligatures:none;font-variant-caps:normal;font-variant-numeric:normal;font-variant-east-asian:normal;letter-spacing:0px;word-spacing:0px;fill:#000000;fill-opacity:0.25283;stroke-width:0.264582"
         x="139.63824"
         y="138.48541"
         id="text13-0-8"><tspan
           sodipodi:role="line"
           id="tspan13-6-9"
           style="font-style:normal;font-variant:normal;font-weight:bold;font-stretch:normal;font-size:7.05556px;font-family:'Adwaita Sans';-inkscape-font-specification:'Adwaita Sans, Bold';font-variant-ligatures:none;font-variant-caps:normal;font-variant-numeric:normal;font-variant-east-asian:normal;fill:#000000;fill-opacity:0.503783;stroke-width:0.264582"
           x="139.63824"
           y="138.48541">C / C++</tspan></text>
      <text
         xml:space="preserve"
         transform="scale(0.26458333)"
         id="text14"
         style="font-weight:bold;font-size:13.3333px;line-height:1.25;font-family:'Adwaita Sans';-inkscape-font-specification:'Adwaita Sans, Bold';font-variant-ligatures:none;letter-spacing:0px;word-spacing:0px;white-space:pre;shape-inside:url(#rect14);display:inline" />
    </g>
  </g>
</svg>
